<svg xmlns="http://www.w3.org/2000/svg" width="12" height="13" viewBox="0 0 12 13">
  <defs>
    <style>
      .cls-1 {
        fill: #fff;
        fill-rule: evenodd;
      }
    </style>
  </defs>
  <path id="Search_Icon" data-name="Search Icon" class="cls-1" d="M415.093,311.5a2.919,2.919,0,0,1-.62-0.988,3.16,3.16,0,0,1-.207-1.122,3.223,3.223,0,0,1,.207-1.129,2.919,2.919,0,0,1,.62-0.995,2.651,2.651,0,0,1,.934-0.649,2.789,2.789,0,0,1,2.133,0,2.651,2.651,0,0,1,.934.649,2.919,2.919,0,0,1,.62.995,3.244,3.244,0,0,1,.206,1.129,3.181,3.181,0,0,1-.206,1.122,2.919,2.919,0,0,1-.62.988A2.726,2.726,0,0,1,415.093,311.5Zm-1.6-5.928a5.274,5.274,0,0,0-1.12,1.786,5.686,5.686,0,0,0,0,4.051,5.28,5.28,0,0,0,1.12,1.785,5.01,5.01,0,0,0,2.854,1.525,4.684,4.684,0,0,0,1.58-.014,4.9,4.9,0,0,0,1.513-.537l2.294,2.428a1.273,1.273,0,0,0,.44.311,1.325,1.325,0,0,0,1,0,1.273,1.273,0,0,0,.44-0.311,1.36,1.36,0,0,0,.293-0.466,1.536,1.536,0,0,0,0-1.058,1.351,1.351,0,0,0-.293-0.466l-2.214-2.343a5.337,5.337,0,0,0,.654-1.666,5.853,5.853,0,0,0,.1-1.778,5.656,5.656,0,0,0-.454-1.729,5.269,5.269,0,0,0-1.006-1.518,5.033,5.033,0,0,0-1.687-1.171,4.832,4.832,0,0,0-3.827,0A5.033,5.033,0,0,0,413.493,305.567Z" transform="translate(-412 -304)"/>
</svg>
